{
  "asset": { "version": "2.0", "generator": "Synapse Web Editor v2.2" },
  "scene": 0,
  "scenes": [{ "name": "Demo", "nodes": [0, 1] }],
  "nodes": [
    { "name": "Ground", "mesh": 0, "translation": [0, 0, 0], "extras": { "synapseType": "Mesh" } },
    { "name": "Agent_Alpha", "mesh": 1, "translation": [2, 0.5, 0], "extras": { "synapseType": "Agent" } }
  ],
  "meshes": [
    { "primitives": [{ "attributes": { "POSITION": 0 }, "indices": 1 }] },
    { "primitives": [{ "attributes": { "POSITION": 2 }, "indices": 3 }] }
  ],
  "accessors": [
    { "bufferView": 0, "componentType": 5126, "count": 4, "type": "VEC3", "max": [1, 0, 1], "min": [-1, 0, -1] },
    { "bufferView": 1, "componentType": 5123, "count": 6, "type": "SCALAR" },
    { "bufferView": 2, "componentType": 5126, "count": 1, "type": "VEC3", "max": [0, 1, 0], "min": [0, 1, 0] },
    { "bufferView": 3, "componentType": 5123, "count": 3, "type": "SCALAR" }
  ],
  "bufferViews": [
    { "buffer": 0, "byteOffset": 0, "byteLength": 48 },
    { "buffer": 0, "byteOffset": 48, "byteLength": 12 },
    { "buffer": 0, "byteOffset": 60, "byteLength": 12 },
    { "buffer": 0, "byteOffset": 72, "byteLength": 6 }
  ],
  "buffers": [{
    "byteLength": 78,
    "uri": "data:application/octet-stream;base64,"
  }]
}
